HIERARCHY
ROOT Hips
{
	OFFSET 0.00 0.00 0.00
	CHANNELS 6 Xposition Yposition Zposition Yrotation Xrotation Zrotation
	JOINT LHipJoint
	{
		OFFSET	0.0000	0.0000	0.0000
		CHANNELS 3 Yrotation Xrotation Zrotation
		JOINT LeftUpLeg
		{
			OFFSET	1.0138	-0.0809	-0.0827
			CHANNELS 3 Yrotation Xrotation Zrotation
			JOINT LeftLeg
			{
				OFFSET	0.4110	-3.9095	0.3245
				CHANNELS 3 Yrotation Xrotation Zrotation
				JOINT LeftFoot
				{
					OFFSET	0.3810	-4.0555	-0.1470
					CHANNELS 3 Yrotation Xrotation Zrotation
					JOINT LeftToeBase
					{
						OFFSET	0.1396	-0.4462	1.3079
						CHANNELS 3 Yrotation Xrotation Zrotation
						End Site
						{
							OFFSET 0.0161 -0.0248 0.1809
						}
					}
				}
			}
		}
	}
	JOINT LowerBack
	{
		OFFSET	0.0000	0.7977	-0.3873
		CHANNELS 3 Yrotation Xrotation Zrotation
		JOINT Spine
		{
			OFFSET	0.0000	1.4131	0.1715
			CHANNELS 3 Yrotation Xrotation Zrotation
			JOINT Spine1
			{
				OFFSET	0.0000	1.4392	-0.1032
				CHANNELS 3 Yrotation Xrotation Zrotation
				JOINT LeftShoulder
				{
					OFFSET	0.2274	1.0382	0.4032
					CHANNELS 3 Yrotation Xrotation Zrotation
					JOINT LeftArm
					{
						OFFSET	1.4730	-0.2267	-0.0231
						CHANNELS 3 Yrotation Xrotation Zrotation
						JOINT LeftForeArm
						{
							OFFSET	1.6131	-1.8059	0.0081
							CHANNELS 3 Yrotation Xrotation Zrotation
							JOINT LeftHand
							{
								OFFSET	1.2197	-1.2423	1.6317
								CHANNELS 3 Yrotation Xrotation Zrotation
								JOINT LThumb
								{
									OFFSET	0.0109	-0.0753	0.4387
									CHANNELS 3 Yrotation Xrotation Zrotation
									End Site
									{
										OFFSET -0.2090 -0.0868 0.2097
									}
								}
								JOINT LeftFingerBase
								{
									OFFSET	0.1071	-0.1567	0.2607
									CHANNELS 3 Yrotation Xrotation Zrotation
									JOINT LeftHandFinger1
									{
										OFFSET	0.1706	-0.2492	0.6830
										CHANNELS 3 Yrotation Xrotation Zrotation
										End Site
										{
											OFFSET 0.0335 -0.1507 0.2071
										}
									}
								}
							}
						}
					}
				}
				JOINT Neck
				{
					OFFSET	0.0000	1.7498	0.2381
					CHANNELS 3 Yrotation Xrotation Zrotation
					JOINT Neck1
					{
						OFFSET	0.0000	0.5043	0.1959
						CHANNELS 3 Yrotation Xrotation Zrotation
						JOINT Head
						{
							OFFSET	0.0000	0.5044	0.1959
							CHANNELS 3 Yrotation Xrotation Zrotation
							End Site
							{
								OFFSET 0.0000 1.4798 -0.0693
							}
						}
					}
				}
				JOINT RightShoulder
				{
					OFFSET	-0.2274	1.0382	0.4032
					CHANNELS 3 Yrotation Xrotation Zrotation
					JOINT RightArm
					{
						OFFSET	-1.4730	-0.2267	-0.0231
						CHANNELS 3 Yrotation Xrotation Zrotation
						JOINT RightForeArm
						{
							OFFSET	-1.6131	-1.8059	0.0081
							CHANNELS 3 Yrotation Xrotation Zrotation
							JOINT RightHand
							{
								OFFSET	-1.2197	-1.2423	1.6317
								CHANNELS 3 Yrotation Xrotation Zrotation
								JOINT RThumb
								{
									OFFSET	-0.0109	-0.0753	0.4387
									CHANNELS 3 Yrotation Xrotation Zrotation
									End Site
									{
										OFFSET 0.2090 -0.0868 0.2097
									}
								}
								JOINT RightFingerBase
								{
									OFFSET	-0.1071	-0.1567	0.2607
									CHANNELS 3 Yrotation Xrotation Zrotation
									JOINT RightHandFinger1
									{
										OFFSET	-0.1706	-0.2492	0.6830
										CHANNELS 3 Yrotation Xrotation Zrotation
										End Site
										{
											OFFSET -0.0335 -0.1507 0.2071
										}
									}
								}
							}
						}
					}
				}
			}
		}
	}
	JOINT RHipJoint
	{
		OFFSET	0.0000	0.0000	0.0000
		CHANNELS 3 Yrotation Xrotation Zrotation
		JOINT RightUpLeg
		{
			OFFSET	-1.0138	-0.0809	-0.0827
			CHANNELS 3 Yrotation Xrotation Zrotation
			JOINT RightLeg
			{
				OFFSET	-0.4110	-3.9095	0.3245
				CHANNELS 3 Yrotation Xrotation Zrotation
				JOINT RightFoot
				{
					OFFSET	-0.3810	-4.0555	-0.1470
					CHANNELS 3 Yrotation Xrotation Zrotation
					JOINT RightToeBase
					{
						OFFSET	-0.1396	-0.4462	1.3079
						CHANNELS 3 Yrotation Xrotation Zrotation
						End Site
						{
							OFFSET -0.0161 -0.0248 0.1809
						}
					}
				}
			}
		}
	}
}
MOTION
Frames: 14
Frame Time: 0.0333333
0.0702 7.3578 0.0288 7.9128 -4.9869 -0.9965 0.0000 -0.0000 0.0000 5.8566 6.2229 5.3482 16.5409 54.3190 11.1514 -2.5766 -29.5523 3.3041 0.0000 -36.6132 -0.0000 0.0000 -0.0000 0.0000 -6.7294 6.2984 -0.2487 -13.1441 12.5235 -1.2498 6.6779 0.1869 3.2354 -70.8086 -12.3456 11.8825 -11.9222 -11.8774 -0.6104 29.0186 -16.6641 4.1478 42.2709 7.5847 22.5932 -6.8891 22.8060 -11.2898 -4.8415 -5.2966 -1.3030 2.1301 -3.0664 -0.3453 2.1301 -3.0663 -0.3453 7.2813 -26.5534 1.3834 1.8312 1.1091 2.1820 43.4295 1.3571 20.5928 -19.0145 21.1429 -1.4156 -25.4721 -9.7654 0.2575 -42.5609 7.1319 -22.4794 6.8731 22.8240 11.2852 4.8300 -5.2840 1.3003 0.0000 -0.0000 0.0000 -11.1314 -40.2039 3.0094 8.1771 48.3375 8.4737 0.9064 -3.0186 -4.7980 0.0000 -2.2800 -0.0000 
0.0383 7.3717 0.0894 7.1843 -5.2134 -0.8671 0.0000 -0.0000 0.0000 7.0938 5.7771 6.7811 17.1009 57.1193 11.8358 -1.2675 -18.4593 3.7106 0.2537 -53.8526 -0.0573 0.0000 -0.0000 0.0000 -6.5677 6.6034 0.0057 -12.8068 13.1608 -0.7686 6.5397 0.1986 3.3335 -70.8910 -12.2189 10.9280 -11.6726 -11.6163 -0.6661 29.3008 -17.0858 4.1392 42.2709 7.5847 22.5932 -6.8891 22.8060 -11.2898 -4.8415 -5.2966 -1.3030 2.1511 -3.0853 -0.4558 2.1510 -3.0854 -0.4558 7.7536 -28.1201 0.0604 2.3374 1.1421 2.1805 44.6633 1.1851 19.2723 -19.4605 21.5549 -1.5700 -25.5576 -9.8443 0.2921 -42.5609 7.1319 -22.4794 6.8731 22.8240 11.2851 4.8300 -5.2840 1.3003 0.0000 -0.0000 0.0000 -10.2583 -39.1221 2.8771 8.0184 51.4440 8.9460 1.4623 -6.9455 -5.5731 0.0000 -1.1616 -0.0000 
0.0056 7.3817 0.1184 6.3535 -5.5188 -0.6753 0.0000 -0.0000 0.0000 8.2321 5.2485 7.8329 15.4193 59.2153 10.5505 -0.1296 -3.6336 3.8081 3.5945 -71.1510 -5.5817 0.0000 -0.0000 0.0000 -6.4028 6.9154 0.3227 -12.4538 13.8034 -0.2452 6.4708 0.2048 3.3810 -70.5206 -11.9929 9.3865 -11.0263 -10.9368 -0.8051 29.6447 -17.5319 3.9502 42.2709 7.5847 22.5931 -6.8891 22.8060 -11.2898 -4.8415 -5.2966 -1.3030 2.0426 -3.0138 -0.4934 2.0426 -3.0137 -0.4934 7.9233 -30.2754 -1.5951 2.6380 1.1648 2.2453 45.6991 0.8466 17.0735 -20.2142 22.2435 -1.8377 -25.0623 -9.2494 0.2044 -42.5609 7.1319 -22.4794 6.8731 22.8240 11.2852 4.8300 -5.2840 1.3003 0.0000 -0.0000 0.0000 -9.7047 -37.8513 2.8010 6.6730 53.9310 8.3066 3.1636 -10.1941 -6.4460 -0.0000 -2.0932 0.0000 
-0.0253 7.3834 0.1010 6.2097 -5.7154 -0.6545 0.0000 -0.0000 0.0000 9.0237 4.9738 8.5440 10.0206 59.7579 5.8401 1.0402 9.5446 1.4759 9.7797 -75.0788 -18.3682 0.0000 -0.0000 0.0000 -6.2705 7.2611 0.7367 -12.1214 14.5007 0.3338 6.3966 0.2114 3.3304 -70.0247 -11.3914 7.4320 -9.9472 -9.7916 -1.0205 30.0345 -17.9680 3.5638 42.2709 7.5847 22.5932 -6.8891 22.8060 -11.2898 -4.8415 -5.2966 -1.3030 1.7486 -2.8165 -0.4132 1.7486 -2.8165 -0.4132 7.7006 -32.5317 -3.2340 2.7036 1.1711 2.3288 46.7790 0.1807 13.8703 -21.4178 23.3225 -2.2827 -23.9518 -7.9509 0.0354 -42.5609 7.1319 -22.4794 6.8731 22.8239 11.2852 4.8300 -5.2840 1.3003 0.0000 -0.0000 0.0000 -9.4833 -36.6202 2.7970 5.3979 55.9088 7.5585 4.3424 -13.0490 -7.0698 -0.0000 -3.7194 0.0000 
-0.0546 7.3822 0.0550 6.8020 -5.8810 -0.7446 0.0000 -0.0000 0.0000 8.9371 3.4887 9.0239 7.2949 61.3829 3.4446 1.1290 15.3684 -5.2045 -7.5471 -70.2169 -42.9658 0.0000 -0.0000 0.0000 -6.0669 7.6575 1.1876 -11.6364 15.2941 0.9376 6.2103 0.2282 3.1306 -70.0345 -10.2565 5.6079 -8.5617 -8.3034 -1.2660 30.4405 -18.3678 3.0381 42.2709 7.5846 22.5932 -6.8891 22.8060 -11.2898 -4.8415 -5.2966 -1.3029 1.3442 -2.6639 -0.3298 1.3442 -2.6639 -0.3298 7.0113 -34.2861 -4.4568 2.5531 1.1540 2.2561 48.2730 -0.8329 10.1215 -22.9679 24.6747 -2.8866 -22.6328 -6.4278 -0.0745 -42.5609 7.1319 -22.4794 6.8731 22.8240 11.2852 4.8300 -5.2840 1.3003 0.0000 -0.0000 0.0000 -9.3699 -35.2886 2.7607 4.1287 57.5174 6.7015 4.8730 -15.7566 -7.3574 -0.0000 -5.2365 -0.0000 
-0.0839 7.3841 0.0154 7.5513 -6.3184 -0.6563 0.0000 -0.0000 0.0000 7.6186 -0.8427 9.3286 17.8241 67.6963 13.1293 0.5743 12.9559 -10.9285 0.0293 -37.2691 -1.3687 0.0000 -0.0000 0.0000 -5.6643 8.0904 1.5566 -10.7866 16.1593 1.4359 5.8918 0.2577 2.7901 -70.9076 -8.6175 4.1927 -6.8936 -6.4885 -1.5142 30.9397 -18.8517 2.3705 42.2709 7.5847 22.5931 -6.8891 22.8060 -11.2898 -4.8415 -5.2966 -1.3030 0.9796 -2.7769 -0.4081 0.9796 -2.7769 -0.4081 5.9491 -35.0343 -5.0447 2.1918 1.1070 1.8938 50.2133 -2.1059 6.5007 -24.4230 25.9047 -3.4837 -21.6596 -5.2980 -0.0420 -42.5609 7.1319 -22.4794 6.8731 22.8239 11.2852 4.8300 -5.2840 1.3003 0.0000 -0.0000 0.0000 -9.1128 -33.5033 2.4825 2.8399 58.9316 5.7627 5.2186 -18.5191 -7.5694 0.0000 -6.3149 -0.0000 
-0.1143 7.3919 0.0014 7.9893 -7.2203 -0.2094 0.0000 -0.0000 0.0000 6.2226 -6.5059 8.6548 32.5688 73.3992 27.4623 0.5447 9.9388 -9.4926 0.0049 -23.7819 -0.5668 0.0000 -0.0000 0.0000 -5.0411 8.5355 1.7339 -9.5630 17.0478 1.6800 5.5499 0.2910 2.3844 -72.4691 -6.5066 2.8801 -4.7389 -4.1142 -1.7570 31.7199 -19.6509 1.3940 42.2709 7.5847 22.5932 -6.8891 22.8060 -11.2898 -4.8415 -5.2966 -1.3030 0.7260 -3.1504 -0.6428 0.7260 -3.1504 -0.6428 4.7428 -34.7775 -5.1535 1.6372 1.0317 1.3118 52.2701 -3.5552 3.3768 -25.1974 26.5438 -3.8131 -21.3367 -4.8818 0.0942 -42.5609 7.1319 -22.4794 6.8731 22.8240 11.2852 4.8300 -5.2840 1.3003 0.0000 -0.0000 0.0000 -8.7372 -31.0479 1.8602 1.8404 60.1967 5.0289 5.7742 -21.3654 -8.0101 -0.0000 -7.1772 -0.0000 
-0.1437 7.4030 -0.0003 8.0984 -8.4564 0.4494 0.0000 -0.0000 0.0000 5.1328 -13.0283 7.0685 49.6000 77.3653 44.3471 0.7216 7.5285 -2.7147 0.0010 -15.8365 -0.2450 0.0000 -0.0000 0.0000 -4.3054 8.9755 1.7376 -8.1782 17.9220 1.6492 5.3283 0.3178 1.9948 -74.2166 -3.9052 1.1590 -1.9225 -0.9766 -1.9396 32.8700 -20.8059 -0.1065 42.2709 7.5847 22.5931 -6.8891 22.8060 -11.2898 -4.8415 -5.2966 -1.3030 0.5116 -3.4926 -0.8027 0.5116 -3.4925 -0.8027 3.5710 -34.0118 -5.1061 1.0351 0.9481 0.7266 54.1413 -5.0557 0.8013 -24.8849 26.2872 -3.6792 -21.6657 -5.1883 0.2503 -42.5609 7.1319 -22.4794 6.8731 22.8239 11.2851 4.8300 -5.2840 1.3003 0.0000 -0.0000 0.0000 -8.4817 -28.0872 1.0678 1.4182 61.2075 4.7592 6.5004 -24.1231 -8.7186 0.0000 -8.1678 0.0000 
-0.1690 7.4129 -0.0093 8.0047 -9.7345 1.0586 0.0000 -0.0000 0.0000 4.5495 -19.5344 4.9220 61.8907 79.4340 56.5618 0.6881 5.7729 4.0382 0.0024 -14.3944 -0.4438 0.0000 -0.0000 0.0000 -3.5666 9.3800 1.6471 -6.8183 18.7263 1.4737 5.3044 0.3337 1.6371 -75.5642 -0.9520 -1.1893 1.4389 2.7848 -1.9553 34.1530 -21.8841 -2.1431 42.2709 7.5847 22.5931 -6.8891 22.8060 -11.2898 -4.8415 -5.2966 -1.3029 0.2242 -3.5105 -0.6774 0.2242 -3.5105 -0.6774 2.4145 -33.2470 -4.9937 0.6151 0.8867 0.2971 55.7504 -6.4102 -1.2755 -23.4581 25.0933 -3.0846 -22.4979 -6.0935 0.3651 -42.5610 7.1318 -22.4794 6.8731 22.8240 11.2851 4.8300 -5.2840 1.3003 0.0000 -0.0000 0.0000 -8.4468 -24.9958 0.3537 1.6475 61.9064 5.0287 7.2127 -26.6355 -9.5644 0.0000 -9.3881 0.0000 
-0.1888 7.4199 -0.0266 7.7111 -10.8654 1.5121 0.0000 -0.0000 0.0000 4.4547 -25.1365 2.5541 60.5487 80.3246 55.1863 0.4830 4.0639 7.2903 0.0159 -15.3035 -1.2381 0.0000 -0.0000 0.0000 -2.8258 9.7136 1.5230 -5.4567 19.3965 1.3134 5.4779 0.3385 1.2560 -75.9569 1.9132 -3.9092 4.9915 6.7329 -1.7326 35.0149 -22.0890 -4.3670 42.2709 7.5847 22.5932 -6.8891 22.8060 -11.2898 -4.8415 -5.2966 -1.3029 -0.1387 -3.2207 -0.3719 -0.1387 -3.2207 -0.3719 1.1113 -32.5236 -4.5030 0.4574 0.8590 0.0339 57.1638 -7.4927 -2.9671 -21.2014 23.1304 -2.2012 -23.6067 -7.3948 0.3989 -42.5609 7.1319 -22.4794 6.8731 22.8240 11.2851 4.8300 -5.2840 1.3003 0.0000 -0.0000 0.0000 -8.4779 -21.9717 -0.1827 2.2137 62.3158 5.5708 7.9066 -28.9062 -10.4394 0.0000 -10.7659 -0.0000 
-0.2049 7.4236 -0.0421 7.0075 -11.8872 1.8720 0.0000 -0.0000 0.0000 4.6691 -29.3575 0.1723 44.7740 79.7354 39.4765 0.2833 2.6245 7.5011 0.0440 -15.3914 -2.1149 0.0000 -0.0000 0.0000 -2.0122 9.9726 1.3916 -3.9273 19.9249 1.2534 5.8196 0.3322 0.7812 -74.9449 4.1449 -6.4433 8.3881 10.4348 -1.2934 34.8767 -20.7751 -6.2211 42.2709 7.5847 22.5932 -6.8891 22.8060 -11.2898 -4.8415 -5.2966 -1.3030 -0.4407 -2.9269 -0.2782 -0.4407 -2.9270 -0.2782 -0.4434 -31.4248 -3.1658 0.3627 0.8443 -0.1180 58.4921 -8.3663 -4.4879 -18.4935 20.6573 -1.2391 -24.6996 -8.7919 0.3021 -42.5609 7.1319 -22.4794 6.8731 22.8240 11.2852 4.8300 -5.2840 1.3003 0.0000 -0.0000 0.0000 -8.3606 -18.9631 -0.5967 2.9644 62.5059 6.2598 8.7437 -30.9954 -11.4044 -0.0000 -12.2458 -0.0000 
-0.2194 7.4244 -0.0500 5.7481 -12.9101 2.2158 0.0000 -0.0000 0.0000 4.9351 -32.1472 -1.9753 25.9453 76.4923 20.8815 0.2386 2.3481 6.6498 0.0742 -14.6330 -2.7801 0.0000 -0.0000 0.0000 -1.0741 10.1843 1.2695 -2.1148 20.3608 1.3127 6.3046 0.3134 0.1795 -72.2793 5.4821 -8.3600 11.4475 13.6740 -0.7142 33.5050 -17.9158 -7.3292 42.2709 7.5847 22.5931 -6.8891 22.8060 -11.2898 -4.8415 -5.2966 -1.3030 -0.5286 -2.9052 -0.7174 -0.5286 -2.9051 -0.7174 -2.1316 -29.5666 -0.8484 0.0344 0.8144 -0.1989 59.8685 -9.1912 -6.0489 -15.6547 17.9337 -0.3527 -25.5132 -9.9735 0.0167 -42.5609 7.1319 -22.4794 6.8731 22.8240 11.2852 4.8300 -5.2840 1.3003 0.0000 -0.0000 0.0000 -8.0271 -15.8660 -0.9876 3.9432 62.5169 7.1384 9.8676 -32.9124 -12.5643 0.0000 -13.7388 -0.0000 
-0.2329 7.4223 -0.0526 3.9467 -13.9482 2.5523 0.0000 -0.0000 0.0000 5.0889 -33.5905 -3.5438 13.7767 70.5106 9.1612 0.3532 3.5820 5.5113 0.0840 -13.7941 -2.2746 0.0000 -0.0000 0.0000 -0.0496 10.3600 1.1643 -0.0953 20.7195 1.4883 6.8960 0.2812 -0.5162 -67.9680 6.1204 -9.6708 14.1030 16.3918 -0.0761 31.1738 -14.1501 -7.7188 42.2709 7.5847 22.5931 -6.8891 22.8060 -11.2898 -4.8415 -5.2966 -1.3030 -0.3765 -3.1441 -1.6240 -0.3765 -3.1441 -1.6240 -3.6540 -27.0604 1.9930 -0.5999 0.7621 -0.2554 61.4187 -10.0484 -7.6804 -12.9042 15.1768 0.3794 -25.9537 -10.7868 -0.4687 -42.5609 7.1319 -22.4794 6.8731 22.8240 11.2851 4.8300 -5.2840 1.3003 0.0000 -0.0000 0.0000 -7.5705 -12.7030 -1.4199 5.2855 62.3578 8.3254 11.3289 -34.6167 -13.9792 -0.0000 -15.0191 -0.0000 
-0.2450 7.4167 -0.0529 1.7844 -14.8822 2.8431 0.0000 -0.0000 0.0000 5.1810 -33.8514 -4.3164 7.6872 62.6478 3.6943 0.5147 5.8155 3.6503 0.2239 -18.3226 -2.6330 0.0000 -0.0000 0.0000 0.9422 10.4601 1.0592 1.8823 20.9149 1.7531 7.5299 0.2384 -1.2166 -62.3601 6.6322 -10.7446 16.3095 18.5734 0.5456 28.4334 -10.3363 -7.6476 42.2709 7.5847 22.5931 -6.8891 22.8060 -11.2898 -4.8415 -5.2966 -1.3030 -0.1154 -3.4099 -2.5834 -0.1154 -3.4099 -2.5835 -4.7401 -24.4886 4.5510 -1.2873 0.7030 -0.3766 63.1629 -10.8968 -9.2194 -10.3584 12.5331 0.9399 -26.1225 -11.3020 -1.0927 -42.5609 7.1319 -22.4794 6.8731 22.8240 11.2852 4.8300 -5.2840 1.3003 0.0000 -0.0000 0.0000 -7.1346 -9.6105 -1.9162 7.0162 62.0202 9.8339 13.0662 -36.0966 -15.6100 0.0000 -15.8404 -0.0000 
